/* XPM */
static char *_6313f5022794bc1b6f416491b99a9a9cMkN4ygTntQjv0PP[] = {
/* columns rows colors chars-per-pixel */
"64 64 216 2 ",
"   c #5A554F",
".  c #5F5A54",
"X  c #61554C",
"o  c #69554E",
"O  c #66584F",
"+  c #6C5B4F",
"@  c #72564B",
"#  c #735E4F",
"$  c #645C53",
"%  c #6C5C53",
"&  c #675A58",
"*  c #6B5F5B",
"=  c #7F5757",
"-  c #735C54",
";  c #7B5D54",
":  c #7C5C59",
">  c #725D58",
",  c #6C6155",
"<  c #6D645B",
"1  c #66615B",
"2  c #736155",
"3  c #7B6256",
"4  c #74645B",
"5  c #7B645B",
"6  c #766A5D",
"7  c #7C6A5E",
"8  c #6E6762",
"9  c #6C6B65",
"0  c #736561",
"q  c #7D6661",
"w  c #746B62",
"e  c #7C6C63",
"r  c #756D69",
"t  c #7A6D69",
"y  c #757164",
"u  c #7C7165",
"i  c #7F7A67",
"p  c #75726C",
"a  c #7C736B",
"s  c #7E796D",
"d  c #767673",
"f  c #7C7371",
"g  c #7D7A73",
"h  c #7E7E7A",
"j  c #855F5E",
"k  c #825D54",
"l  c #82654F",
"z  c #816555",
"x  c #846A55",
"c  c #896C56",
"v  c #82655B",
"b  c #836A5D",
"n  c #896C5D",
"m  c #89675E",
"M  c #85705F",
"N  c #8C745E",
"B  c #94725F",
"V  c #826661",
"C  c #8B6363",
"Z  c #836D64",
"A  c #8A6D63",
"S  c #836E69",
"D  c #8C6D69",
"F  c #926C69",
"G  c #837265",
"H  c #8B7265",
"J  c #837866",
"K  c #8F7866",
"L  c #84736B",
"P  c #8A756B",
"I  c #84796D",
"U  c #8B7A6D",
"Y  c #927564",
"T  c #927965",
"R  c #93756B",
"E  c #927A6D",
"W  c #997A6C",
"Q  c #987965",
"!  c #847571",
"~  c #8A7671",
"^  c #847B73",
"/  c #8B7C73",
"(  c #857D7A",
")  c #8B7E7A",
"_  c #937671",
"`  c #927D74",
"'  c #9B7D73",
"]  c #937E7A",
"[  c #997E79",
"{  c #9B7574",
"}  c #A07E7A",
"|  c #7F817E",
" . c #8D826E",
".. c #9C846E",
"X. c #848175",
"o. c #8B8275",
"O. c #86827C",
"+. c #8C837B",
"@. c #878878",
"#. c #8C897C",
"$. c #938275",
"%. c #9A8275",
"&. c #93847B",
"*. c #9A857B",
"=. c #94897D",
"-. c #9B8A7D",
";. c #9D8875",
":. c #93907F",
">. c #A1806D",
",. c #A28473",
"<. c #A1857B",
"1. c #A8877E",
"2. c #A28A7D",
"3. c #A88E7F",
"4. c #A18B74",
"5. c #AE937E",
"6. c #868581",
"7. c #8C8482",
"8. c #868887",
"9. c #8C8A83",
"0. c #8C8D8B",
"q. c #938681",
"w. c #9A8682",
"e. c #948B83",
"r. c #9A8D86",
"t. c #9B8C83",
"y. c #9A8789",
"u. c #938D89",
"i. c #9B8E8A",
"p. c #91868A",
"a. c #959285",
"s. c #9C9185",
"d. c #96928C",
"f. c #9D938C",
"g. c #9C9A8C",
"h. c #959391",
"j. c #9C9592",
"k. c #9D9995",
"l. c #9E9D9B",
"z. c #A88782",
"x. c #A18982",
"c. c #A28D83",
"v. c #AB8E84",
"b. c #A28E89",
"n. c #A98D89",
"m. c #A39284",
"M. c #AA9384",
"N. c #AD9887",
"B. c #A3948B",
"V. c #AB958B",
"C. c #A49A8D",
"Z. c #AC9B8D",
"A. c #B2978E",
"S. c #B39B8E",
"D. c #B09486",
"F. c #A29692",
"G. c #AB9693",
"H. c #A59B93",
"J. c #AB9B93",
"K. c #A49E9A",
"L. c #AC9C99",
"P. c #AC9699",
"I. c #B09792",
"U. c #B39D93",
"Y. c #B99D94",
"T. c #B69F99",
"R. c #A3A18E",
"E. c #ABA08C",
"W. c #B3A08F",
"Q. c #A6A394",
"!. c #ACA195",
"~. c #A6A09A",
"^. c #ACA49B",
"/. c #ADAA9D",
"(. c #ABA897",
"). c #B3A293",
"_. c #BBA295",
"`. c #B5A897",
"'. c #B4A49B",
"]. c #BCA49C",
"[. c #B3A99E",
"{. c #BAAD9C",
"}. c #A5A4A2",
"|. c #AAA6A0",
" X c #AEABA4",
".X c #B6A5A2",
"XX c #BDA6A6",
"oX c #B4ABA1",
"OX c #BCABA3",
"+X c #B4ADAA",
"@X c #B4B2A4",
"#X c #BBB2A6",
"$X c #BCB9A6",
"%X c #BCB2AB",
"&X c #B7B9A3",
"*X c #B5B4B2",
"=X c #C2AB9E",
"-X c #C3AFA4",
";X c #C1AFAD",
":X c #C2B1A4",
">X c #C8B4A6",
",X c #C4B2AE",
"<X c #C8B5AF",
"1X c #C2BAAB",
"2X c #CFB9AE",
"3X c #C3B5B3",
"4X c #C4BCB4",
"5X c #C9BAB8",
"6X c #D1BDB5",
"7X c #C3C2AD",
"8X c #C9C0B7",
"9X c #C3C0B1",
"0X c #CEC3C1",
"qX c #D4C6C3",
"wX c #DED6D3",
"eX c #E2D3D0",
/* pixels */
"; D _ D V Z D P ] ] ~ L B.&.t.[ W B c z 5 t.^ H.^. X4XH.t.e / $.~ S t.w &.^ H.o.< $ w @.#.@.9.#.X.e.^ a e.f.&.o.P =.$.] x.x._ V ",
"*.*.[ *.n.I.x.P x.G.B.] q.4 ~ P B B Y N 5 / 4 o.u.d.^.H.[.B.B.w.=.t.OX&.^ a e.=.^ ^ e.g.a.@.X.a g @.a w ^ ) L I 4 Z 5 3 Z U P S ",
"B.$.q > L t.w.~ I e.e./ &.4 ^ / Y >.,.' G U w +.1 . 8 a f.i.&.e e , L 4 L f.e.) / o.=.+.a g o.^ q.d.e.+.q.q.&.t.&.-.*.U E %.<.;.",
"* e a a L L e < $ < < 4 o.u I 7 n Q Y n 7 u a q.< $ $ r e.f.=.L e w o.^ 4 t.^ o.o.+.q.^ w a ) ^ a ( +.+.o.I I / L U E P b Z H x ",
"8 O.f.d.q.+.+.) ^ o.o.o.C.o.o.7 K W H Z U U &.s.< < < a +.t.&.~ a u a a X / < * X 4 ^ ~ e ^ &.) ) ( q.e.) L ~ $.5 3 M H z x Y x ",
"u.h.d.9.u.k.^.^.e.Q.!.C.`.=.C.N.3.D.2.-.Z.=.s.e.a / +.F.B.L.B.B.t.q.I q.&.[.f.L t.r.B.=.e w S e &.L L ~ w 4 G U 2.U E ..T ..5.,.",
"r g 7.u.j.K.f.+.I e.t.U $.J Z.:XS._.V.x.Z.I o.e a / a +.^ e.) &.a H.f.Q.o.^ H.e.&./ &.=.$.B.-X6XJ.] =.B.w.*.m.V.M.G x N z N ..c ",
"8 f ^ ^ +.i.f.t.t.B.&.7 U G W.>X>X2X].B.J.L o.w j.d.^ o.a q.) q.w f.+.H.B.t.4XC./ S I ] L P *.B.w.S ] J.V.m.V.M.N.x x N x T ..l ",
"! 7.t & r ! ~ w.e q 5 3 Z ;.Y.-XT.'.'.J.t.^ u w ^ a ^ +.! t a L I I I I &.t.-.$.2 % % 5 P P P ` L S S L [ 2.m.M.;.K x N K N N N ",
"y.L.P.y.y.] S S P P D Z A R %.2.w.b.B.B.r.=.&.&.+.o.e.s.q.+.+.^ I o.&.=.-.r.m.t.-.*.$.[ [ [ [ ` $./ / $.%.` ` *.).N.<.;.;.....4.",
"P.XXP.y.] ~ q q ~ _ _ R P D A H e ~ ) q.e.e.s.f.C.f.H.H.f.e.7.t L 6 3 L Z.OX`.x.x.B.m.;.$.*.*.] / Z L $.$.G Z U S.N.2.-.%.%.2.N.",
"XXXXG.] ] ] _ P 5 5 q V V 5 3 4 4 t ^ ( o.+.=.=.C.f.B.s.q.q.) 0 L $.-.%.U / *.x.P *.*.P Z U ` P G P ] *.-.&.*.m.Z.B.-.*.$.*.x.V.",
"B.b.t.w.w.t.] q L L L P L G L ~ a ( q.q.+.+.&.o.=.) ) ) ( 7.7.L q P E Z 3 3 S U P *.*.P Z P U P + 7 G 7 7 U ] U P L q 4 4 w w w ",
"L e L / &.B.b.~ B.r.t.t.e.o.&.i.9.j.j.u.q.e.t.=.&.L a L a ! ) / x.E Z P v.].T.x.$.x.x.$.$.*.x.x.-.U.Z.$.$.B.B.$./ &.&.=.t.B.i.t.",
"] L ~ / / B.[.H.d.q.+.q.+.g g +.u.j.f.7.( =.s.s.=.e 4 t w 0 t ! S P P D D P E P ` [ $.&.*.-.B.Z.m.Z.N.$.$.s.t./ e ) t.B.H.L.H.j.",
"=./ &.o.u / s.o.e.+.=.s.e./ / +.7.u.7.t w ^ =.-.~ % $ 0 4 & r / S D D P [ *.%.E P G G P U U $.-.$.=.$.o.$.=.&.) e &.B.H.B.i.q.( ",
"q.f.=.o.e.I e e.r./ ] Z _ Z [ *.x./ $.] B./ ] U ] &./ a e ^ &.q.F.t.w./ L w.V.P / P L U I G I o.o.i o.L , 6 6 % I &./ I &.t.q.=.",
"|.K.~.~.f.e.~ w q q _ D _ ; j : - P m.` ` 7 P Z L ~ ~ S e L ~ I ) ! L t 4 L $.q Z Z / m.Z.B.=.o.=.I =.f.f.B.=.=.~ J.!./ G / -.B.",
"~.q.f.H.t.F.r.% 4 Z *.w.<.A V 3 @ $.U.E Z 5 P 7 e L S e e S L L ^ a ^ ~ q L ] L $.U U -.Z.Z.-.o.B.o.&.s.!.C./ -.B.`.t.4 5 $.$.L ",
"O.f a a a i.i.0 L L ] *.<.' ' ' Z [ %.5 + 3 5 % > > % % > 4 e t a w a L 4 w I q 7 4 3 L x.).).!.U 7 5 7 -.m.$.U.6X:X*.7 ` N.-.Z ",
"~.+XF.+.H.%X[.J.'.V.x.V.U.].].].A.A.z.` H P / ` ` / ] w.r.B.B.H.e.+.e.t./ =.b.] *.%.` ` $.$.P 7 U P G # G $.` N.V.M.E b m m v b ",
"a d.o.a e.f.+.&.*.P 4 S P [ P P D P D P - - - P Z S ~ w.b.b.t.q.o.^ o./ L &.*.w S Z V 7 G ` *.*.$.%.%.b 7 G 3 m 2.v.2.%.' Y A W ",
"  8 p a o.q.o.^ ) S o 5 4 P 5 3 3 Z b R ; 5 5 [ P S ~ *.w.&.] / #.X.o.I I B.B.5 P L 5 - 4 Z P P 3 # K K A H v v Y R A A ' ' m ; ",
".   p +./ e.f.^ ) L % q 2 G 4 5 Z D 3 H 3 P P [ ~ Z q Z S Z S I I a u < w s.r.o - 5 5 q P ] U q Z @ K ;.R A 3 3 z Y A v R ' A @ ",
"8 g ^ g O.e.e.) &.o.e.r.$./ ] ` ` <.v.z.c.V.V.V.U.V._ &.] L ] &.H.a.o.+.t.&.m.OX].].OX].J.=.L q 3 3 v R ' %.<.2.<.S.v.W ' ' A Y ",
"9.u.#.^ ^ O.o.^ o.^ +.t.&./ I G Z ` %.%.%.;.*.*.V.B.] w.w.&.w.o.y a w 4 e G G / S ] $.P L ~ ~ L %.H b b m m Z A H <.' m D m ; ; ",
"9.O.g p 8 < < < I y a o.^ I L w Z U *.;.*.*.*.&.t.w./ ] q.&.&.e , L G 4 G U P Z % L P 4 4 ~ o.I ] Z 3 3 V G H H D ' R A R H v ; ",
"9.O.O.+.X.s a ^ @.y w a a I / L 4 Z P U P P P P &.t./ / o./ o.w % e 7 2 e P Z q 4 L I q 4 w w $ P G 7 5 5 4 - o 5 S S S R R P Z ",
"9.9.9.u.u.9.9.a.a.s u I ^ o.+.I &.*.-.-.&.$.$.&./ t.&.&.o.o.e.^ -.$.P P ] U P *.B.b.i.s.d.d.+.^ B.B.B.B.r.*.$.] $.*.b.V.G.T.T.U.",
"O.O.O.X.^ X.#.e.a.^ I o.o.o.X.w U U P L 7 2 4 6 e ) I ^ ^ a o./ m.P 3 b P 3 - ] / L a ^ +.#.9.u.q.e.e.o.) o.q.t.~ ~ &.w.&.t.B.b.",
"( 9.9.X.^ +.a.e.a.^ s @.o.X.^ y U U U U G 6 6 u w a w a a w a a S.%.Z E %.H S b.4 q e w a +.d.j.~.H.s.( ! ^ ( ) t.) e.w.~ ~ w.&.",
"< I +.^ ^ #.q.o.s.o.I o.o.=.=.o.u u I / I u u I / ^ a o.o.u a e -.P 5 H $.P P b.X w L < * a o./ e.q.o.^ ^ +.&.o.i.+.q.&.4 4 L L ",
"3 H %.M.N.x.$.P U P P $.2.N.S.U.B.f.s.B.!.^.C.=.s.t.[.e.s.t.B.H.L.H.B.B.s.t.t.t.&.=./ / =.t.m.C.s.@.o.F.d./ u.f.F.q.&.b.B.=.P P ",
"l c Q ,.2.;.E G 5 5 5 Z E ;.M.N.s.F.J.[.oX`.t.I / / t.&.~ w.&.i.) ) ( +.&./ u < o.+.U / x.N.V.).s.e.o.q.q.q.H.e.+X3X5X,XOX'.-.7 ",
"l x n T E E G 7 L G e 5 3 5 b G t.f.H.[.#XoXB./ o.&.=.t.~ B.] y.&.o.q.f.f.e.^ a o.+.U / m.Z.N.Z.t.e.I L I e.H.! F..X;XOX[.J.=.7 ",
"n N T %.;.*.` I I I I L e 7 G U ) +.o.&.t.s.=./ o.$.t.t.) i.~ ) L L ^ +.) a a ^ +.o.I U x.m.2.-.=.-.U I L &.B./ q.) &.t.-./ U $.",
"Y E %.m.J.U.H.s.o.e.r.t.&./ / / q.+.^ a I / / I / U B.$.t.w.) / i.B.^.Q.e.^ =.Q.o./ G G $.*.` U E $.&.m.=.] V.B.J.t.] ] I u I -.",
"b Z U -.Z.!.J.F.i.F.H.F.e./ L e ^ ! t w u I I G G e r.~ t.&.] / q.i.J.H.o.w u =./ ^ u e / ` P P Z K %.T.c./ V.'.G.J.t.L 7 G I G ",
"G G L o.t.f.f.u.^ 7.u.f.f.q.+.( 8 8 < < 6 u u e 6 7 / L L / ~ ) =.&.=.r.&.a a +.+.o.L u / / U ` Z H ` U.V.[ B.V.] &./ e 6 G G 6 ",
"b.=.&.e.f.H.k.h.u.d.k.K.j.e.+./ q.7.( ^ ^ o.&.o.&.t.m.m./ B.y.J.r./ ~ e.s.t.s.H.e.e.o.I / / U $.` E %.S.V.*.n.*.*.P Z P U G J  .",
"H.s.^.8X4X+X+X*Xk.h.d.d.j.f.d.u.u.+.) s.F.+./ B./ u / ~ ! t.P..X'.b.Z.L 1X=.a.I C.w [.B.s.C.B.w.M.=Xc.Z *.V.w.*.$.Z P m.N.C.E.!.",
"oXC.F.^.~.~.}.}.0.0.h.k.j.9.O.o.u.H.H.B.H.C.&.U 2 6 P 4 t P.P.t.J.t.V./ :X=.e.#.f.< =.^ e.C.w.*.c._.2.P 2.c.[ ] I L *.).`.`.{.{.",
"#XJ.f.f.d.k.l.h.0.8.8.0.6.g ^ u.+.f.i.o.e.f.=.U e L &.e / L.B.) J.x.m.t.!./ o.t.q.I H.=.=.&.~ &.$.c.` P %.$.P / L ~ r.Z.C.Z.).!.",
"e.=.e.+.^ 6.9.h 0.| h 6.6.h +.k.u.j.f.B.H.B.s.Z.t.-.b.=.t.b.] y.V.2.-.B.m.I o.Q.f.s.J.e.&.) L r.m.m.-.-.B.t.w.J.t.r.B.r.&.t.N.m.",
"e / s.+.p g 6.O.g p d 9.0.6.^ +.f.L.^.^.J.t.=.s.m.B.B.] / / S t.%.P P -.$.I =.[.[.s.I a ( i.&.t./ L e u L w L q.+.) / L w U &.U ",
"4 I e.o.9 9 h O.p 9 9 p g f p r 7.K.F.^ L / o.=.t.{.'.e 0 ~ e P ] b 7 U e 7 / t.f.q./ q.+.e.o.) =.o./ o.L e ! q./ / ] &./ t.B.&.",
"6 u o.+.a p h g h h d 9 9 p g g e.F.e.^ ) =.t.B.-.`.J.q ~ t.~ / 2.Z P U L u / L +.=.e.^.o.( ( ! I s @.+.a w t ! 0 0 L ~ Z L L e ",
"a.=.H.@XoX^.K.d.7.d.j.9.7.u.u.9.+.o.q.Q.oXt.I &.$.&./ L J..Xt.L.B.P *.-.B.s.J.+.t.^ u t.t +.i.+.L / s.C.+.! ! ! F.j.L.J.e./ &.&.",
"R.$X1X#X#X[.t.o.a 7.( ^ 7.( d 6.|.f.d.H.B./ 7 7 5 5 q $.J.XX;X3X%X[.f.&.&.t.s.t.B./ e &.^.H.i.L.V.E x.x.-.$.e +.g.Q.^.Q.#XQ.o.Q.",
"&X7X$X#X1X#XJ.r.a ) ^ ! 9.7.( 0.}.k.f.f.B.-.P b H 5 5 $.'.,X;X.X%X^.f.q.o.o.$.-.t.L 4 L &.^ f &.[ R 2.<.U 7 e =.4X9X$XQ./.g.X./.",
"R.R.:.=.C.!.B.r.~ o.) / q.q.7.u.j.j.f.e.r.m.*.H Z G ` *.t.t.y.i.i.q./ I L L U $.-./ u L / t t &.` K 5 G G 6 I o.i X.@.X.#.X.y a.",
"R.a.X.I -.s.-.t./ / ~ ^ ) +.+.+.^ ( +.&.=.&.] U ` *.m.b.] L ! q.^ ) ^ L ~ -.-.$.m.m.-.t.t.) / B.V.m.7 U $.U C.g.a.g.g.a.g.a.O.H.",
"(.C.=.o.$.U G / L e Z Z Z L I L t t / w.&.L L ] $./ P P ^ L a a e ~ I 7 U N.m.G m.Z.).'.U.b.t.J.N.).=.$.I u g.Q.@XQ.g.@.#.d.d./.",
"s.a.o.o.o.e 5 P 7 4 Z G b S U P P ! ] b.*.L L &./ I L L a e t a w L e 2 P Z.N.G N.{.:X-XOXJ.B.J.m.C.$.U J i #.#.a.#.a.=.e.H.^.%X",
"+./ I &.-.U G *.V 5 P ` Z H %.` ~ ~ _ $.] ~ / $.] =.t.t.&.o.q.f.-.%.H 7 U m.m.U -.Z.Z.V.V.c.*.x.m.*.*.$.-.C.=.X.I I s.=.I ~ L ~ ",
"L e 6 I $.G 7 ` Z b ` %.A H %.E V Z Z q q P / I I e e ) f.H.F.B.U.;.b 3 2 2 2 2 7 P G 7 Z Z V Z 2 7 -.$.$.-.U U / / B.*.q V Z _ ",
"O 4 G / U U P P 3 7 E b R A E H S _ ` _ S Z ] e e L e / ^.[.B.B.x.%.b 7 P G 2 + $.e 7 2 P 7 H b b K K H ` %.` ] P *.Y.[ _ : C j ",
"G Z e e G U -.m.$.*.c.*.2.;.<.[ P ] ] *.P e L $ w ~ L ^ q.o.e Z E E H P ` U U =.=.L 7 % 4 - 3 3 R W A @ ; m D P P z.Y.z.{ C j = ",
"H G G G U $.t.B.-.x.*.*.` ` P Z 5 S P $./ ~ ) 0 ( e.e.&.&./ U $.Z E [ $.&.I =.oXC.s./ U 7 3 - 3 A ,.' R ' %.D ; : _ } } D F C C ",
"H P E ` $.*.-.s.B.B.&.t.L ] e V 4 5 q ~ I a ( r j.f.&.I e q L ` ` ;.-.t.&.L o.^.~.^.J.`.$.U 3 v m R A z E 2.` v z.I.z.<.V F j C ",
"R E ` ` $.*.s.H.B.s.) &.! &.! / P P L ~ e 4 t * q.^ a 0 4 Z ~ [ c.m.*.&.&./ / u.d.H.F.[.-.$.Z H m H b m 2.S.%.5 x.V.%.[ 5 D : : ",
"m R <.c.x.-.t.d.&.o.^ +.( 7.) q.~ U U =.) ! u.7.i.q.w.&.P / ;.%.%.*./ L ) o.g g O.O.( e.&.*.%.2.' <.%.c.=X=X-.7 7 L L P P _ S 5 ",
"k R v.V.x.] ~ ) e.q.f.f.j.u.i.f.L G u / ) q.3X0X5X3X5X[.L - v 3 Z ] U w a o.h p O.p a a =.w.Z.U._.M.E P -.m.-.-.=.t.s.=.s.t./ 5 ",
"F ' 1.%.P 7 e ^ e.9.K.j.K.7.p.7.&.I 4 w 6 / 4XwX0XqXeX<XP - R %.Z -.w.L ! 7.O.g O.r p w r.b.'.).Z.m.$.$.x.-.=.B.+.o.=.I s.e.e.a "
};
