/* XPM */
static char *c58fe9ba50bf4cc3a6d4123a8030b21foRKpG2SieSQGYXyx[] = {
/* columns rows colors chars-per-pixel */
"64 64 172 2 ",
"   c #6C655C",
".  c #716761",
"X  c #746C65",
"o  c #786E66",
"O  c #776E68",
"+  c #786F6A",
"@  c #767067",
"#  c #797067",
"$  c #777069",
"%  c #7C736D",
"&  c #7F786F",
"*  c #7F7671",
"=  c #7F7871",
"-  c #807771",
";  c #837B75",
":  c #887F77",
">  c #867E79",
",  c #887F7A",
"<  c #878077",
"1  c #8A8077",
"2  c #878079",
"3  c #8B837D",
"4  c #90877F",
"5  c #8E8681",
"6  c #8F8882",
"7  c #908782",
"8  c #918782",
"9  c #908781",
"0  c #908684",
"q  c #918785",
"w  c #908782",
"e  c #918981",
"r  c #908881",
"t  c #938A81",
"y  c #908882",
"u  c #908982",
"i  c #908883",
"p  c #918883",
"a  c #918983",
"s  c #918982",
"d  c #928982",
"f  c #918A82",
"g  c #918A83",
"h  c #938A83",
"j  c #928A83",
"k  c #938C83",
"l  c #918884",
"z  c #918984",
"x  c #918985",
"c  c #928984",
"v  c #938985",
"b  c #928985",
"n  c #918A84",
"m  c #928A84",
"M  c #928B84",
"N  c #938B84",
"B  c #928A85",
"V  c #938A85",
"C  c #928B85",
"Z  c #928886",
"A  c #938987",
"S  c #938A86",
"D  c #938B86",
"F  c #948A85",
"G  c #948B85",
"H  c #948A86",
"J  c #948B86",
"K  c #948B87",
"L  c #938C84",
"P  c #938C85",
"I  c #938C86",
"U  c #948C86",
"Y  c #948D86",
"T  c #958D86",
"R  c #948C87",
"E  c #958C87",
"W  c #958D87",
"Q  c #968D87",
"!  c #968E87",
"~  c #938A85",
"^  c #948D88",
"/  c #958D88",
"(  c #958D89",
")  c #968D88",
"_  c #968D89",
"`  c #978D89",
"'  c #958E89",
"]  c #968E88",
"[  c #968E89",
"{  c #978E89",
"}  c #968F89",
"|  c #978F89",
" . c #978F8A",
".. c #968D89",
"X. c #988E8A",
"o. c #988F8A",
"O. c #988F8B",
"+. c #988F8B",
"@. c #979088",
"#. c #97908A",
"$. c #97908B",
"%. c #97908A",
"&. c #98908B",
"*. c #99908B",
"=. c #98918B",
"-. c #99908C",
";. c #99918C",
":. c #99908D",
">. c #99918D",
",. c #9A908C",
"<. c #9B908D",
"1. c #9A918D",
"2. c #9B918D",
"3. c #99928C",
"4. c #99928D",
"5. c #9A928D",
"6. c #9B928D",
"7. c #9B938D",
"8. c #9A928E",
"9. c #9B928E",
"0. c #9A938E",
"q. c #9B938F",
"w. c #9C928D",
"e. c #9C928F",
"r. c #9D928F",
"t. c #9C938F",
"y. c #9D938F",
"u. c #9B948F",
"i. c #9C948F",
"p. c #9A928D",
"a. c #9C9290",
"s. c #9C9490",
"d. c #9D9490",
"f. c #9C9590",
"g. c #9D9690",
"h. c #9F9692",
"j. c #9F9693",
"k. c #9E9591",
"l. c #9F9993",
"z. c #A19795",
"x. c #A09793",
"c. c #A19894",
"v. c #A29894",
"b. c #A29995",
"n. c #A29896",
"m. c #A39997",
"M. c #A29A97",
"N. c #A29A95",
"B. c #A49A98",
"V. c #A59B99",
"C. c #A69C9A",
"Z. c #A69D9A",
"A. c #A79D9B",
"S. c #A69E9B",
"D. c #A59D99",
"F. c #A89E9C",
"G. c #A89F9C",
"H. c #A99F9D",
"J. c #A7A09A",
"K. c #A9A19E",
"L. c #A9A29E",
"P. c #ADA5A2",
"I. c #B0A7A4",
"U. c #B1A9A6",
"Y. c #B6AFAD",
"T. c #B7B1AE",
"R. c #B8B3AF",
"E. c #BCB6B3",
"W. c #BFB9B6",
"Q. c #C0BAB7",
"!. c #C4BEBB",
"~. c #C6C0BD",
/* pixels */
"5 5 5 5 q q A A 5 3 3 q % % ; ; > , 3 5 5 3 3 3 5 > ; > # a N.D.V.z.V.D.D.N.D.F.L.F.N.a.a #.F.F.F.F.D.V.V.V.D.F.N.N.N.N.7 ; q A ",
"; ; ; ; ; ; ; ; ; - - ; o # & * - - ; , > > ; ; > ; ; ; # ; a A a 5 / 9.9./ 9.9.9.9./ A 2 3 / / / Q / / o.=.9.t.o.9.=.=.3 - 2 2 ",
"3 - ; - ; ; - ; - - - * % & * & * & 3 5 5 5 3 3 5 3 3 5 2 3 a a 5 3 Q t.9.g.u.9.g.9.#./ A Q Q Q I 3 a Q Q / o.=./ 9./ =.Q a Q A ",
"7 - - * ; - - - & ; - & & & - & * # 3 5 A A a 3 5 a a 6 a a A I A 3 A 9.9.u.9.#.#./ / / / #.Q A a 2 3 a a 7 A A 5 a A A A / / Q ",
", & & * - * * - # ; ; ; - - ; ; ; - 3 5 5 5 3 2 ; 6 5 5 A 5 a a A 3 5 A A A A I 2 a a A A A a 7 5 3 3 3 3 3 5 2 & ; > ; , 2 2 2 ",
"> > , 2 > > ; , 2 =./ / Q / / #.g.#./ 9.Q / A A < 9.9.9.9.o./ =.g.9.=.9.u.9.9.g.2 o.t.t.t.9.9.t.t.g.g.t.o.9.t.o.& ; 3 3 3 , 2 3 ",
"; - ; ; ; - - ; ; , , ; ; = 3 a A a a a 7 7 5 5 2 a a k Q 2 2 3 a 5 a A A A A A 3 7 7 7 5 ; 5 J J J J J A J A A 2 5 5 5 5 ; - ; ",
"> > 3 2 > > > , 3 3 3 3 ; * J / Q =.o.=./ / =.=.Q =.=.=.=.3 a Q / / / o.Q J / o./ / / #.=.2 A 9.9.=.t.9./ / O.9.9.9.t.i.g.7 ; > ",
"3 3 3 3 - , , 3 3 3 3 3 > > a a 6 a A A 3 I / Q / / I Q / 5 a A Q Q A Q 2 5 A Q a A Q I Q 3 a Q Q Q =.=.2 3 A J Q K / o.o.a 3 3 ",
"5 5 5 3 & 2 2 2 3 3 3 3 2 3 3 3 3 3 3 3 - 6 a a a A 6 6 6 3 6 3 6 5 5 5 & 2 3 5 2 3 3 3 2 2 3 3 3 3 6 a % - , 3 3 3 3 3 3 3 5 3 ",
"J A a a ; 3 3 3 3 3 3 3 ; 3 a 3 5 3 3 3 > a A Q 5 A A a 2 3 Q a a 5 a 5 ; 5 a a 3 5 3 3 ; ; > ; 2 ; 2 2 & & ; ; ; ; - ; - 2 A a ",
"i.9.i.9.9.u.=./ / / =./ 2 5 / A A A A A A / J J 7 5 J / - 3 9./ o./ o./ / 9.9.=./ =./ / , # & % % % % % & & & & & % + + + 2 g.g.",
"; ; > ; - = & & = - - - # & - & ; ; ; ; & - - - > ; 2 3 & ; 2 2 3 2 3 ; ; 2 3 3 3 3 3 3 - X o . . X . . . X o o # O + + X & 2 3 ",
"A / / A 3 N.N.N.D.D.D.D.c.D.D.N.N.D.D.J.a =.9.9.i.9.g.g.9.9.g.g.g.g.g.=.3 9.N.N.N.N.l.N.g.=.#.=.=.Q A A ; > a a A A 7 A a A / / ",
"A A A A 3 c.N.N.N.N.N.N.l.N.g.9.N.N.D.D.#.g.x.g.g.g.g.g.x.x.t.A Q / o.J 3 =.g.g.g.g.9.9.9.u./ A =.=.=.=.3 5 / J / / / / / / J 3 ",
"A A A A a / Q / A / Q Q I / 3 2 9.t.t.g.g.c.c.c.l.g.g.g.c.N./ - 5 5 a 7 3 A J a Q / a a a A 3 - A Q / o./ J / A J / / Q / Q a - ",
"/ / =./ #./ J A A A a Q J / 3 > g.g.g.x.D.D.D.D.N.N.g.c.c.B.=.; Q A J J J a a 3 a A 5 7 a a 5 - / / 9.9.t.o./ / / / J / / / A ; ",
"; > ; & & & % @ # # & ; - ; - - 2 3 3 3 a a 3 a 5 2 # ; ; ; ; & ; - - & - - & - & # # ; ; ; ; - ; ; ; - , ; ; ; ; ; o - ; ; ; & ",
"% % % % % % % # # o # - ; > > ; > 2 2 2 > 2 2 2 2 ; o * % % % % % % % % & % % & & # o - ; ; ; ; - - ; - ; ; > ; ; % . # & % % O ",
"3 3 3 3 2 2 2 ; > 2 2 3 3 ; 5 / 9.9.9./ / / / / / Q a A A 2 > 5 7 7 5 7 3 , 3 3 2 , ; , > & - > ; ; ; - ; ; - - ; ; % & - - ; 3 ",
"5 7 A 6 3 5 6 2 3 5 3 3 3 ; 5 9.t.t.9.=.=.#.9./ 9.9.=.9.#.3 2 J J J J J 3 , 3 3 3 3 2 > > % & ; ; ; ; - ; - - & ; ; - - - - 2 6 ",
"a a / / A I A ; 5 A 5 5 5 2 a / / / / / / #.#.3 A J J A a 2 2 a 5 3 3 3 3 , 3 ; 5 5 3 3 3 ; 2 3 3 3 3 , 3 > 2 & 2 3 3 3 2 2 3 A ",
"/ A g.g.9.=.=.; K / Q Q / / / Q / / / / / 9./ - 3 3 5 3 3 3 2 3 5 2 , 2 3 3 3 - / / / / / / / A / A A q A 5 A & A / / #.Q I I Q ",
"> ; 3 3 2 ; ; & ; - ; > ; ; > ; 5 5 5 5 5 5 a ; > > 2 ; ; ; ; - 3 2 2 3 2 3 5 ; J A A Q A Q a ; > , ; > > 3 2 % ; > > 2 - ; ; ; ",
"5 3 5 5 5 3 3 3 3 ; 2 2 ; ; - 2 L.G.L.L.L.L.L.L.L.G.L.L.D.J.N./ P.P.P.L.L.L.P.P.P.P.P.P.I.U.P.3 5 5 3 3 3 3 3 > 3 3 3 3 > 2 2 - ",
"5 3 3 3 3 , 2 3 - ; 3 3 2 2 : 2 g.g.i.i.i.i.i.i.Q Q 9.=./ 9.Q 5 9.9.#./ / / #.#.a / 9.9.9.g.g.2 > > 3 , 3 3 3 2 ; > 3 5 3 3 3 > ",
"/ / / / / A A A ; J g.g.t.g.g.t.B.N.N.N.N.D.N.N.3 3 A A 7 / A A / J A 7 A a A A ; 7 / o./ 9.9./ A A A Q A Q Q Q ; 7 9.g.a.g.g.9.",
"/ / 9.9.=.o./ / 3 / 9.9.x.N.B.N.B.N.B.D.D.D.D.D.a 3 5 3 3 7 5 7 a 7 5 3 5 3 5 5 - 3 a A o.9.o.9./ 9./ 9./ / / / ; a 9.9.g.g.g.g.",
"; > 3 > 2 3 , 3 > > & # 2 3 7 5 3 a 5 A A A J J a 5 2 # % % % # & & # # # # # X # % # o 2 2 , 3 3 3 3 2 ; > 3 2 - - - o ; ; ; ; ",
", , 3 , 3 3 3 3 5 5 ; - Q / o.o.9.9.9.=.g.9.9.i.g.g.#.- * & & - - - - * - ; ; * - & # # 3 3 , 3 3 3 3 3 5 5 3 5 3 2 , % , 2 ; 1 ",
"- * - - * * * * & % % # & & / 9.t.i.9.t.g.N.g.N.N.N.c./ A > 2 5 q A A 5 5 5 5 5 5 a 3 3 a 3 A o.t.i.i.i.x.g.x.z.g.x.g.9.g.A % - ",
"o + O # X X X o o O O . X o 5 a 3 3 3 5 a a A a 3 6 5 2 ; & * ; ; , 2 > > > ; > > 2 ; ; ; & - 2 2 3 a a a a a J Q / =./ =.3 o # ",
"& ; > 2 , ; ; ; 2 , , , , , A A - % - - ; - ; ; * = ; & & # # & O ; 3 3 3 > > > 2 > ; ; ; - - 2 ; 3 Q Q Q / Q Q / / 9.=.9.A 3 3 ",
"= 3 7 A a a h J J A J o.Q J J A - o % % % O # & O + % + % # # % X - 3 3 3 ; > 2 2 ; ; ; 2 2 ; 3 - 3 / / =./ / / / J A A Q A Q A ",
"$ # * & % % ; : > > > 3 > ; ; ; & % % % & o O # $ # # o # # % # o % * & & # & - ; - * - - = - - # - ; - 2 ; ; , , ; ; - & & & % ",
"3 > ; ; * O A K A A J / I / Q Q / #./ / g.2 > 3 3 3 5 3 3 6 a a / 9./ Q A ; 2 A A A K / o.K J A Q / A A A 2 5 / J / / J 3 > 3 2 ",
"a A a A A 3 Q / =.o.=.u.5 6 Q / Q Q a a Q 2 3 3 6 3 3 3 ; & ; ; ; 2 2 2 3 2 3 7 3 3 6 a 2 ; a a A a J a A 5 A A J a A 5 3 - A a ",
"t.9.9.t.t.9.g.x.l.x.c.g.A a 9.=./ / / / / A A a I A a a ; & 3 3 5 5 5 3 3 5 a A 7 a A a 2 - 7 a a a Q / a 3 7 A Q A a a a ; =.=.",
"2 , 3 2 3 3 7 7 5 7 5 3 > ; 3 3 2 3 A A J A a 5 a A 5 3 ; * 2 2 ; 3 5 5 5 7 a A 7 A A 5 2 - 3 3 ; 3 5 5 3 3 2 3 5 5 3 3 5 ; a 3 ",
"X . o X o # % % # % % % # % & & @ ; 3 3 5 3 3 3 3 5 3 2 ; - ; ; o - 3 3 3 5 3 7 5 7 7 3 2 ; > 2 % - > 2 2 2 ; ; > > ; - 2 2 ; - ",
"o X + % # % % & # - ; ; , , > 2 - 3 a 7 A A A A 3 3 A 5 3 2 5 3 - ; 3 5 5 5 3 3 3 3 3 5 3 > 3 3 & ; , 3 3 3 2 > , - - ; ; ; ; ; ",
"- ; > ; ; ; ; 2 o a x.N.N.N.z.D.N.D.D.D.D.D.D.N.2 3 t.O.g.9.g.g.9.J J 9.A / A A ; - , , 3 3 5 5 5 5 3 5 5 7 q 3 - # ; ; > > ; , ",
"* - ; - & * - ; o ; a A Q / J A / A 5 3 2 3 5 3 ; 2 5 3 5 7 a a 5 3 , , > 3 3 3 - - ; ; ; > > > , > > 2 - > > ; & o & * - * * * ",
"/ / A A 2 a A Q 5 a / / / o./ / =./ a 3 ; > 3 2 > 3 , , 3 3 3 2 2 > ; > - 3 q A A A / Q A J A 5 a A a a ; 5 A 5 5 3 5 3 3 6 5 3 ",
"9.o./ / 3 J / =.J 3 5 3 5 5 5 a a a 3 2 - ; ; ; ; ; ; ; > ; ; ; ; - - ; # 3 5 A A A / Q Q J A 5 5 3 5 5 ; 5 6 5 a 3 5 3 6 a a 5 ",
"A A Q J 7 A J / 3 % * * ; ; - ; ; > ; * % ; - * & # , , , , , , 2 > > > - 3 3 5 5 ; a a 7 7 7 3 3 2 3 3 3 5 3 3 3 & 3 3 5 5 4 3 ",
"=.9.g.a.g.z.z.z.A % ; ; > > > ; ; 3 > ; > , > ; ; ; / 9.9.9.o./ / K / K K / K / / 2 J Q / o.9./ K / o.9.9.t.O.O./ ; o.K 9.9.=.i.",
"% - ; ; , , , 5 2 ; ; ; ; - ; > X & ; > > > ; > 2 ; 2 5 5 3 5 3 % - ; > , 3 > ; - - & - - ; ; ; # - 2 2 ; 3 5 3 3 ; 2 ; ; 2 2 ; ",
"& 2 3 3 5 3 3 3 3 5 3 3 3 3 3 a & 3 a A A Q Q J Q Q J / 9./ Q J - > 5 7 A 7 5 7 3 3 3 3 3 7 a A - 3 A A K / A A / I / / / #.9./ ",
", 3 3 , 5 3 3 2 , , ; 2 7 7 a A 3 / / / / o.9.=./ / 7 3 9./ Q / 3 5 A A / A 5 5 5 5 3 ; > > , > - ; > > , 2 2 3 3 2 2 2 A / 9./ ",
"3 3 > ; > > ; ; ; * # - 3 5 5 5 a A a A A A J / A A > & / A A A 5 A A A Q A 5 3 3 5 > O % * % % % % % % * & & * & * # # 5 5 7 q ",
"3 5 5 3 5 5 3 3 3 > ; 2 a A A Q 3 > 2 3 3 3 3 5 3 3 ; & 5 5 3 3 > 3 a A a 5 3 3 > 3 > % * * % & # ; 3 3 3 3 3 3 3 3 ; ; / A A / ",
"a / N.N.N.D.D.D.N.N.N.N.B.D.D.D.3 - ; > > , ; , , , ; ; ; ; > > O - 3 3 2 3 3 , > > 2 2 2 ; > > & 9.P.P.P.P.P.P.U.L.D.N.D.D.N.D.",
"& - 2 3 2 3 3 3 3 3 3 3 a a 5 3 - # & * & & & % & & & # # # & & . # # # o # & # # # # # @ & & & # ; 3 3 3 2 > 3 2 2 2 2 ; 2 ; 2 ",
"7 7 5 3 ; , > ; ; ; ; % a Q J J A A A A q 7 A 7 J A 5 , ; 5 5 5 5 7 5 3 ; > > ; ; ; ; * & 3 5 3 3 5 5 5 5 3 3 3 5 3 5 3 - 5 5 3 ",
"J J 5 2 2 3 3 2 ; ; ; & 7 J A a Q / Q / / A A Q A 5 5 ; ; 3 3 3 5 3 3 ; ; ; ; - & - 3 2 : a A A A A A A 5 a a a 3 ; 3 3 ; 5 7 5 ",
"9.g.#.#./ / =./ > 2 A 7 / =.9.9.t.9.t.t.i.9.9.i.5 ; 5 > , 3 3 3 3 3 2 ; ; ; - = @ 2 9.=.=.g.g.x.l.c.N.N.i.g.l.l.Q 3 #./ A / =.o.",
"9.g.a.g.9.9.9./ > 3 / / / / o.a.N.g.N.N.z.x.N.N.J , 7 A 5 5 3 > 3 3 > - ; ; - = % 3 g.g.x.g.g.g.N.B.D.D.D.D.D.D.9.A g.g.9.9.9./ ",
"= = & % * % % O # # # # O O o 2 I J Q Q Q A 9.9.t./ 7 I 6 5 ;   + o O # + + % # & # # # & % o o ; ; ; ; ; , , , > > > ; ; ; # X ",
"; ; ; ; ; ; ; ; ; ; ; ; - * & 5 9.9.g.g.g.g.z.N.g./ / #.I / 5 $ & * - - * - ; ; ; ; ; ; ; ; % - 5 3 3 3 3 5 5 5 3 5 3 3 3 3 ; % ",
"5 3 3 3 3 3 3 3 3 5 3 3 # % & ; - ; ; ; > ; > ; ; ; - ; & 3 3 ; 2 2 , > , > 2 3 , > 2 2 % - - ; , ; ; ; - ; ; ; ; ; * ; & 3 5 5 ",
"3 3 3 3 3 3 5 5 a A a 3 # % * & # % % % & + # % O # # # . - ; ; 3 3 3 3 5 3 3 3 , 2 2 2 % - ; - ; ; ; ; - ; ; ; ; ; ; > - 3 a 5 ",
"=.9.9.=./ / =.9.9.s.u.=.5 5 5 ; - * - * ; % & & # # % % # ; * & 9.9.9.9.g.i.9.9./ / 9.9.a Q Q > / =.=.=.9.9.9.9.t.g.9.g.=.c.c./ ",
"E.E.W.W.T.Y.T.E.E.E.T.T.R.T.Y.J.l.l.l.l.N.g.g.g.f.9.u.u.l.l.4.#.E.W.Q.W.W.W.W.W.E.E.W.W.E.E.E.L.W.Q.!.!.!.~.!.!.!.!.!.!.~.~.!.E."
};
